<svg xmlns="http://www.w3.org/2000/svg" xmlns:xlink="http://www.w3.org/1999/xlink" width="188.772" height="210" viewBox="0 0 188.772 210">
  <defs>
    <linearGradient id="linear-gradient" x1="0.5" x2="0.5" y2="1" gradientUnits="objectBoundingBox">
      <stop offset="0" stop-color="#00c2ab"/>
      <stop offset="0.54" stop-color="#05e2f8"/>
      <stop offset="1" stop-color="#006fbe"/>
    </linearGradient>
  </defs>
  <g id="People_Jump-01-01" data-name="People Jump-01-01" transform="translate(0.006 0.102)">
    <g id="BACKGROUND" transform="translate(-0.006 63.263)">
      <path id="Path_367" data-name="Path 367" d="M60.178,209.591c10.459,1.372,21.088,1.543,31.633,1.972,4.8.171,9.6,0,14.059,1.715,4.2,1.629,7.544,4.886,11.83,6.258a25.262,25.262,0,0,0,10.459.686,53.1,53.1,0,0,0,46.463-61.037c-1.286-8.144-5.058-15.773-5.915-24-.943-8.744,2.4-16.288,4.458-24.6a61.608,61.608,0,0,0,1.886-17.745,21.874,21.874,0,0,0-2.143-9.944c-4.372-8.23-15.516-9.773-24.775-8.83a86.694,86.694,0,0,0-33.09,10.287c-7.972,4.372-15.859,10.8-25.032,12.516-10.287,1.972-18.345-5.144-27.6-8.315-20.831-7.287-46.12,7.029-55.293,25.975-11.4,23.4-10.116,61.722,11.23,79.125,11.573,9.43,26.575,13.973,41.405,15.945Z" transform="translate(0.006 -73.814)" fill="#f5faff"/>
    </g>
    <g id="OBJECTS" transform="translate(20.14 -0.102)">
      <path id="XMLID_14_" d="M197.875,72.557,196.847,70.5,168.3,92.274l12.516,20.145L209.191,88.5Z" transform="translate(-44.165 -9.976)" fill="#ffdc64"/>
      <path id="XMLID_13_" d="M169.7,96.4l10.973,18.945.686-.343-9.687-17.659Z" transform="translate(-44.365 -13.673)" fill="#d5d3d3"/>
      <path id="XMLID_12_" d="M197.575,72.4,169.8,92.974s.086.429.772.686a2.229,2.229,0,0,0,1.114.171l29.232-19.974A10.042,10.042,0,0,1,198.6,73,5.494,5.494,0,0,0,197.575,72.4Z" transform="translate(-44.379 -10.247)" fill="#f4f3f3"/>
      <path id="XMLID_11_" d="M201.818,73.2,171.3,93.6l9.858,18.774,1.629,2.572L213.22,92.4s-3.172-4.8-5.144-7.715c-1.886-2.915-5.744-9.687-5.915-10.116C202.075,74.143,201.818,73.2,201.818,73.2Z" transform="translate(-44.593 -10.361)" fill="#ffc850"/>
      <path id="Path_369" data-name="Path 369" d="M70.686,186.463s-6.687-6-8.83-4.886C59.2,182.863,44.2,197.608,44.8,204.551c.257,2.829,3.515.429,9.43-5.658a13.238,13.238,0,0,1,13.287-3.515Z" transform="translate(-26.533 -25.812)" fill="#cee2f6"/>
      <path id="Path_370" data-name="Path 370" d="M89.658,198.286,81.6,193.4s-21,19.631-17.659,22.289c2.486,1.972,3.943.171,9.858-5.915S87.172,207.2,87.172,207.2Z" transform="translate(-29.217 -27.519)" fill="#cee2f6"/>
      <path id="Path_371" data-name="Path 371" d="M146.347,123.7l1.457,21.517-33.6-8.744Z" transform="translate(-36.443 -17.57)" fill="#e0a584"/>
      <path id="Path_372" data-name="Path 372" d="M113.472,139.4s29.49,1.886,33.347.514c0,0,5.744,56.579-4.458,62.665-10.287,6.087-33.261-2.829-33.261-2.829l6.172-12.173,13.373-.857V164.946l-.943.257Z" transform="translate(-35.715 -19.811)" fill="#33658a"/>
      <path id="Path_373" data-name="Path 373" d="M70.192,177.976s-7.372,3.086-4.972,10.458c0,0,25.289,19.8,37.633,15.259,6.858-2.572,14.316-22.117,19.46-38.834l18.26-24.946s-8.573.429-11.487.429c-5.486,0-21.946-.943-21.946-.943s-8.573,44.92-11.659,45.949C92.395,186.549,70.192,177.976,70.192,177.976Z" transform="translate(-29.382 -19.811)" fill="#4c87b2"/>
      <path id="Path_374" data-name="Path 374" d="M122.2,63.165s17.659-16.545,20.746-20.917,9.6-18.945,17.659-25.032L156.662,8.9s2.4-1.286,3.943,2.143c0,0,5.658-11.316,6.944-11.144,1.286.257-2.572,8.744-2.572,8.744s5.486-7.887,6.944-7.63c1.543.257-3.943,8.83-3.943,8.83s6.087-7.115,6.944-6.172c.857.857-4.8,6.172-4.8,6.172s6.087-3.515,6.772-2.315c.686,1.114-6.087,4.2-6.087,4.2s-.686,4.972-4.8,7.2c0,0-8.23,22.117-15.6,29.318L126.572,73.023Z" transform="translate(-37.585 0.102)" fill="#f6ebe6"/>
      <path id="Path_375" data-name="Path 375" d="M87.022,83.8s-16.716,17.488-21.088,20.488-19.031,9.43-25.2,17.4l-8.23-4.029s-1.372,2.4,2.143,3.943c0,0-11.4,5.572-11.144,6.858.171,1.286,8.744-2.572,8.744-2.572s-7.887,5.4-7.715,6.944,8.83-3.858,8.83-3.858-7.115,6-6.258,6.944c.857.857,6.258-4.715,6.258-4.715s-3.6,6.087-2.4,6.772c1.114.686,4.286-6.087,4.286-6.087s5.058-.6,7.2-4.715c0,0,21-8.315,28.2-15.688L96.795,92.973Z" transform="translate(-23.495 -11.874)" fill="#f6ebe6"/>
      <g id="Group_160" data-name="Group 160">
        <path id="Path_376" data-name="Path 376" d="M103.487,74.672,95,82.988l2.143,9.344s8.315,19.974,9.6,24.86c1.972,7.63-1.2,19.2-1.2,19.2s14.145-1.2,27-1.629,17.059-4.543,17.059-4.543S138.463,93.1,130.747,82.73,120.289,69.1,120.289,69.1l-11.316,2.486Z" transform="translate(-33.702 -9.776)" fill="url(#linear-gradient)"/>
        <path id="Path_377" data-name="Path 377" d="M131.759,80.374l8.83-5.658s1.372-6-9.258-13.116L118.9,69.4Z" transform="translate(-37.114 -8.705)" fill="#02d0cf"/>
        <path id="Path_378" data-name="Path 378" d="M94.659,84.47c-4.8.686-13.63,12.945-14.659,12.945,0,0,6.258,10.116,11.144,10.458C91.144,107.873,112.833,81.9,94.659,84.47Z" transform="translate(-31.561 -11.944)" fill="#02d0cf"/>
      </g>
      <g id="Group_161" data-name="Group 161" transform="translate(0 0)" opacity="0.5">
        <path id="Path_376-2" data-name="Path 376" d="M103.487,74.672,95,82.988l2.143,9.344s8.315,19.974,9.6,24.86c1.972,7.63-1.2,19.2-1.2,19.2s14.145-1.2,27-1.629,17.059-4.543,17.059-4.543S138.463,93.1,130.747,82.73,120.289,69.1,120.289,69.1l-11.316,2.486Z" transform="translate(-33.702 -9.776)"/>
        <path id="Path_377-2" data-name="Path 377" d="M131.759,80.374l8.83-5.658s1.372-6-9.258-13.116L118.9,69.4Z" transform="translate(-37.114 -8.705)"/>
        <path id="Path_378-2" data-name="Path 378" d="M94.659,84.47c-4.8.686-13.63,12.945-14.659,12.945,0,0,6.258,10.116,11.144,10.458C91.144,107.873,112.833,81.9,94.659,84.47Z" transform="translate(-31.561 -11.944)"/>
      </g>
      <path id="Path_368" data-name="Path 368" d="M84.4,54.1a2.83,2.83,0,0,0-.943,3.343c.943,2.057,4.886,8.315,10.2,8.058.257,0-6.772-11.4-6.772-11.4Z" transform="translate(-32.022 -7.635)" fill="#43494e"/>
      <path id="Path_379" data-name="Path 379" d="M112.511,70.626s-7.029-5.229-6.772-7.372c.086-.514,1.029-1.372,1.286-2.143C108.4,57,101.8,46.451,97.767,44.308c-3.172-1.715-1.8-1.886-8.487,2.057s-2.915,10.8.086,14.4a13.4,13.4,0,0,0,8.915,5.058L102.4,75Z" transform="translate(-32.354 -6.072)" fill="#f6ebe6"/>
      <ellipse id="Ellipse_60" data-name="Ellipse 60" cx="8.658" cy="6.344" rx="8.658" ry="6.344" transform="translate(65.117 65.972) rotate(-22.184)" fill="#f6ebe6"/>
      <path id="Path_380" data-name="Path 380" d="M89.67,63.7s-2.315-.086-2.572,1.372c-.257,1.543,4.2,1.543,5.829.343Z" transform="translate(-32.573 -9.005)" fill="#f6ebe6"/>
      <path id="Path_381" data-name="Path 381" d="M89.841,61.044c-.429-2.743-3.343-4.8-3.172-7.458A2.16,2.16,0,0,0,88.3,50.414c-.257-.6-.686-1.114-.943-1.629-.257-.6-.343-1.286.086-1.629a.924.924,0,0,1,.686-.171c2.057-.171,5.658.429,7.544-.257,1.8-.686,3.772-1.972,3.6-4.2-.171-1.972-1.886-3.515-3.429-4.715-.943-.686-3.515-2.486-4.458-2.315-1.457.257-1.886,2.229-1.972,3.858a2.536,2.536,0,0,0-3.515,0A6.258,6.258,0,0,0,84.184,42.7a7.776,7.776,0,0,1-1.715,3.343c-.857.772-2.143,1.372-1.972,2.657.171,1.543,2.229,2.143,3.172,3.429-.257-.343-.429,1.715-.257,2.057a10.076,10.076,0,0,0,2.143,2.572C87.013,58.3,87.784,60.1,89.841,61.044Z" transform="translate(-31.63 -4.978)" fill="#565656"/>
      <path id="Path_382" data-name="Path 382" d="M105.329,58,100.1,60.657C100.186,60.657,106.444,65.2,105.329,58Z" transform="translate(-34.43 -8.192)" fill="#fff"/>
      <path id="Path_383" data-name="Path 383" d="M101.415,57.1a1.48,1.48,0,0,1,.257-.343c.171-.171.6-.343.857-.6s.343-.857-.086-.943c-.429-.171-.943.343-1.543.857-.171.086-.257.257-.429.343a1.637,1.637,0,0,1-.686.257,1.38,1.38,0,0,1-.943-.686,3.711,3.711,0,0,1-.772-1.543c-.257-.943-.171-1.629-.086-1.543.086,0,.086.6.514,1.457a4.024,4.024,0,0,0,.857,1.372.887.887,0,0,0,.6.429c.086,0,.086,0,.257-.171.171-.086.257-.257.429-.343a7.494,7.494,0,0,1,.857-.686,1.2,1.2,0,0,1,1.2-.171.834.834,0,0,1,.6.943,2.682,2.682,0,0,1-.429.857,2.818,2.818,0,0,1-1.029.514Z" transform="translate(-34.116 -7.462)" fill="#eda091"/>
      <path id="Path_384" data-name="Path 384" d="M100.5,69.414s3.343,0,5.144-1.114a7.531,7.531,0,0,1-4.543,2.315Z" transform="translate(-34.487 -9.662)" fill="#eda091"/>
    </g>
  </g>
</svg>